<svg height="160" preserveAspectRatio="xMidYMid meet" viewBox="0 0 640 640" width="160" xmlns="http://www.w3.org/2000/svg" xmlns:xlink="http://www.w3.org/1999/xlink"><defs><path id="a" d="m-269.06 661.82-.46.23-.23-.23v.23l-146.33 58.48-146.34-58.48v-.23l-.23.23-.45-.23v.23l-146.56 58.71v458.95l147.01-56.19 146.11 55.96v.23h.91v-.23l146.11-55.96 147.02 56.19v-458.95l-146.56-58.71z"/><linearGradient id="b"><stop offset="0" stop-color="#2075bc"/><stop offset="1" stop-color="#29aae1"/></linearGradient><linearGradient id="c" gradientUnits="userSpaceOnUse" x1="-416.08" x2="-416.08" xlink:href="#b" y1="1179.81" y2="661.82"/><path id="d" d="m-709.66 1179.71 147.24-56.19v-461.7l-147.24 58.94z"/><linearGradient id="e"><stop offset="0" stop-color="#0a6aa8"/><stop offset="1" stop-color="#1699c8"/></linearGradient><linearGradient id="f" gradientUnits="userSpaceOnUse" x1="-636.01" x2="-636.01" xlink:href="#e" y1="1179.81" y2="661.82"/><path id="g" d="m-122.27 1179.71-147.48-56.19v-461.7l147.48 58.94z"/><linearGradient id="h" gradientUnits="userSpaceOnUse" x1="-196.04" x2="-196.04" xlink:href="#b" y1="1179.81" y2="661.82"/><path id="i" d="m-417.23 1179.71 147.48-56.19v-461.7l-147.48 58.94z"/><linearGradient id="j" gradientUnits="userSpaceOnUse" x1="-343.46" x2="-343.46" xlink:href="#e" y1="1179.81" y2="661.82"/><path id="k" d="m-122.5 1179.71-147.25-56.19v-461.7l147.25 58.94z"/><linearGradient id="l" gradientUnits="userSpaceOnUse" x1="-196.16" x2="-196.16" xlink:href="#b" y1="1179.81" y2="661.82"/><path id="m" d="m-564.03 1007.5-.79-.01-1.14.21-2.65.22 1.55-1.71 1.55-1.64 1.55-1.52 1.54-1.32v6.19z"/><path id="n" d="m563.37 459.87c-62.93 102.27-173.07 153.31-283.42 137.2 13.03-22.51 117.25-202.61 130.28-225.13 28.66-49.62 11.65-113.22-38.02-141.68-16.18-9.54-34.11-14.35-51.71-14.35h260.61c30.13 94.45 24.22 175.77-17.74 243.96z"/><path id="o" d="m320.55 215.91c-35.83 0-70.67 19.12-89.83 52.4-18.76 32.21-17.98 70.99-1.07 101.69-12.93-22.33-116.33-201-129.26-223.33 84.76-107.43 238.14-139.64 360.19-69.29 56.98 32.75 98.01 82.08 120.53 138.53-52.11 0-234.5 0-260.56 0z"/><path id="p" d="m279.95 597.32c-34.17-4.92-67.9-16.3-99.58-34.5-134.28-77.41-180.19-248.58-102.74-382.43 6.92-12.07 14.52-23.11 22.71-33.62 8.62 14.89 51.71 89.39 129.26 223.47.64 1.11 1 1.73 1.07 1.85 8.78 15.23 21.64 28.51 38.02 37.81 49.52 28.61 112.98 11.62 141.54-37.81-26.06 45.05-117.25 202.71-130.28 225.23z"/><path id="q" d="m560.85 290.86c-18.34-25.15-85.1-29.54-115.18-62.5 5.38-16.35-5.38-29.78-16.38-40.03-16.39-11.97-39.37-6.59-56.98-1.96-20.05-4.15-38.64-11.47-57.96-17.08-43.52-4.64-86.56 25.87-86.56 25.87-31.06 19.53-79.72 60.3-102.95 84.22 5.62.74 11.73-3.41 18.09-4.15 4.48-1.14 40.28-10.32 44.75-11.47-18.58 15.38-57.71 42.23-68.96 63.47 13.94-4.64 43.04-20.75 57.71-21.97-12.71 11.23-39.12 32.47-47.68 45.89.98.49.24 1.71.49 2.44 11-6.1 37.41-21.72 49.39-22.7-12.47 12.94-35.21 37.6-40.35 54.2 10.76-7.08 37.91-21.24 49.65-25.64-2.69 6.59-8.81 11.48-12.72 18.07-5.38 9.03-18.1 19.28-18.58 30.27 9.53-8.79 21.27-16.36 33.01-22.7-5.38 10.98-14.92 20.01-17.61 32.95 7.83-7.57 22.25-11.23 32.28-14.65-.12.13-1.1 1.1-1.22 1.23-.74.73-11.98 8.54-19.57 17.33 6.85-.49 1.72-1.22 10.28.73.46.02 4.18.22 4.64.24-2.2 1.22-4.89 2.45-7.58 3.91-4.16 2.2-8.56 4.64-13.2 7.08 18.58 23.68 41.57 42.48 67.73 55.41 34.24 16.85 71.9 22.22 109.31 17.82-.14-.65-1.32-5.93-1.46-6.59-.74-2.68-1.47-5.37-2.45-7.81 0-.24 0-.24-.24-.49 12.71-23.68 6.11-64.44 38.88-80.8 22.01-11.23 24.7-17.33 49.88-12.69 13.7 2.68 43.78 12.93 57.96 9.76 12.96-7.32 19.56-10.5 30.81-19.04 14.18 2.44 18.59 1.22 23.97-6.35-4.65 6.59 9.04-25.39 14.91-37.59.05-.41.3-2.44.74-6.1-2.61-29.62-4.89-45.82-6.85-48.58z"/></defs><use fill="url(#c)" xlink:href="#a"/><use fill="none" xlink:href="#a"/><use fill="url(#f)" xlink:href="#d"/><use fill="none" xlink:href="#d"/><use fill="url(#h)" xlink:href="#g"/><use fill="none" xlink:href="#g"/><use fill="url(#j)" xlink:href="#i"/><use fill="none" xlink:href="#i"/><use fill="url(#l)" xlink:href="#k"/><use fill="none" xlink:href="#k"/><use fill="#f2f2f2" xlink:href="#m"/><use fill="none" xlink:href="#m"/><use fill="#fed130" xlink:href="#n"/><use fill="none" xlink:href="#n"/><use fill="#e64a45" xlink:href="#o"/><use fill="none" xlink:href="#o"/><use fill="#51b84e" xlink:href="#p"/><use fill="none" xlink:href="#p"/><use fill="#0d77b0" xlink:href="#q"/><use fill="none" stroke="#fff" stroke-width="12" xlink:href="#q"/></svg>