<svg version="1.1" xmlns="http://www.w3.org/2000/svg" xmlns:xlink="http://www.w3.org/1999/xlink" preserveAspectRatio="xMidYMid meet" viewBox="0 0 640 640" width="160" height="160"><defs><path d="M-269.06 661.82L-269.52 662.05L-269.75 661.82L-269.75 662.05L-416.08 720.53L-562.42 662.05L-562.42 661.82L-562.65 662.05L-563.1 661.82L-563.1 662.05L-709.66 720.76L-709.66 1179.71L-562.65 1123.52L-416.54 1179.48L-416.54 1179.71L-415.63 1179.71L-415.63 1179.48L-269.52 1123.52L-122.5 1179.71L-122.5 720.76L-269.06 662.05L-269.06 661.82Z" id="a7arTiBo1p"/><linearGradient id="gradientak3TRPe" gradientUnits="userSpaceOnUse" x1="-416.08" y1="1179.81" x2="-416.08" y2="661.82"><stop offset="0%" stop-color="#2075bc" stop-opacity="1"/><stop offset="100%" stop-color="#29aae1" stop-opacity="1"/></linearGradient><path d="M-709.66 1179.71L-562.42 1123.52L-562.42 661.82L-709.66 720.76L-709.66 1179.71Z" id="b51iRaEZeX"/><linearGradient id="gradientb26U4gB0P" gradientUnits="userSpaceOnUse" x1="-636.01" y1="1179.81" x2="-636.01" y2="661.82"><stop offset="0%" stop-color="#0a6aa8" stop-opacity="1"/><stop offset="100%" stop-color="#1699c8" stop-opacity="1"/></linearGradient><path d="M-122.27 1179.71L-269.75 1123.52L-269.75 661.82L-122.27 720.76L-122.27 1179.71Z" id="e4Z7oqJ4tP"/><linearGradient id="gradienta1uI7lH0kp" gradientUnits="userSpaceOnUse" x1="-196.04" y1="1179.81" x2="-196.04" y2="661.82"><stop offset="0%" stop-color="#2075bc" stop-opacity="1"/><stop offset="100%" stop-color="#29aae1" stop-opacity="1"/></linearGradient><path d="M-417.23 1179.71L-269.75 1123.52L-269.75 661.82L-417.23 720.76L-417.23 1179.71Z" id="aotXNRfWG"/><linearGradient id="gradientd5BRCEcU7g" gradientUnits="userSpaceOnUse" x1="-343.46" y1="1179.81" x2="-343.46" y2="661.82"><stop offset="0%" stop-color="#0a6aa8" stop-opacity="1"/><stop offset="100%" stop-color="#1699c8" stop-opacity="1"/></linearGradient><path d="M-122.5 1179.71L-269.75 1123.52L-269.75 661.82L-122.5 720.76L-122.5 1179.71Z" id="b1sK8mCz19"/><linearGradient id="gradientb1mLD1Pnhk" gradientUnits="userSpaceOnUse" x1="-196.16" y1="1179.81" x2="-196.16" y2="661.82"><stop offset="0%" stop-color="#2075bc" stop-opacity="1"/><stop offset="100%" stop-color="#29aae1" stop-opacity="1"/></linearGradient><path d="M-564.03 1007.5L-564.82 1007.49L-565.96 1007.7L-568.61 1007.92L-567.06 1006.21L-565.51 1004.57L-563.96 1003.05L-562.42 1001.73L-562.42 1007.92L-564.03 1007.5Z" id="b1LOyZJX6B"/><path d="M563.37 459.87C500.44 562.14 390.3 613.18 279.95 597.07C292.98 574.56 397.2 394.46 410.23 371.94C438.89 322.32 421.88 258.72 372.21 230.26C356.03 220.72 338.1 215.91 320.5 215.91C337.87 215.91 424.74 215.91 581.11 215.91C611.24 310.36 605.33 391.68 563.37 459.87Z" id="a9z2ICljZ"/><path d="M320.55 215.91C284.72 215.91 249.88 235.03 230.72 268.31C211.96 300.52 212.74 339.3 229.65 370C216.72 347.67 113.32 169 100.39 146.67C185.15 39.24 338.53 7.03 460.58 77.38C517.56 110.13 558.59 159.46 581.11 215.91C529 215.91 346.61 215.91 320.55 215.91Z" id="eLopQU8CP"/><path d="M279.95 597.32C245.78 592.4 212.05 581.02 180.37 562.82C46.09 485.41 0.18 314.24 77.63 180.39C84.55 168.32 92.15 157.28 100.34 146.77C108.96 161.66 152.05 236.16 229.6 370.24C230.24 371.35 230.6 371.97 230.67 372.09C239.45 387.32 252.31 400.6 268.69 409.9C318.21 438.51 381.67 421.52 410.23 372.09C384.17 417.14 292.98 574.8 279.95 597.32Z" id="a2p5OvdxfG"/><path d="M560.85 290.86C542.51 265.71 475.75 261.32 445.67 228.36C451.05 212.01 440.29 198.58 429.29 188.33C412.9 176.36 389.92 181.74 372.31 186.37C352.26 182.22 333.67 174.9 314.35 169.29C270.83 164.65 227.79 195.16 227.79 195.16C196.73 214.69 148.07 255.46 124.84 279.38C130.46 280.12 136.57 275.97 142.93 275.23C147.41 274.09 183.21 264.91 187.68 263.76C169.1 279.14 129.97 305.99 118.72 327.23C132.66 322.59 161.76 306.48 176.43 305.26C163.72 316.49 137.31 337.73 128.75 351.15C129.73 351.64 128.99 352.86 129.24 353.59C140.24 347.49 166.65 331.87 178.63 330.89C166.16 343.83 143.42 368.49 138.28 385.09C149.04 378.01 176.19 363.85 187.93 359.45C185.24 366.04 179.12 370.93 175.21 377.52C169.83 386.55 157.11 396.8 156.63 407.79C166.16 399 177.9 391.43 189.64 385.09C184.26 396.07 174.72 405.1 172.03 418.04C179.86 410.47 194.28 406.81 204.31 403.39C204.19 403.52 203.21 404.49 203.09 404.62C202.35 405.35 191.11 413.16 183.52 421.95C190.37 421.46 185.24 420.73 193.8 422.68C194.26 422.7 197.98 422.9 198.44 422.92C196.24 424.14 193.55 425.37 190.86 426.83C186.7 429.03 182.3 431.47 177.66 433.91C196.24 457.59 219.23 476.39 245.39 489.32C279.63 506.17 317.29 511.54 354.7 507.14C354.56 506.49 353.38 501.21 353.24 500.55C352.5 497.87 351.77 495.18 350.79 492.74C350.79 492.5 350.79 492.5 350.55 492.25C363.26 468.57 356.66 427.81 389.43 411.45C411.44 400.22 414.13 394.12 439.31 398.76C453.01 401.44 483.09 411.69 497.27 408.52C510.23 401.2 516.83 398.02 528.08 389.48C542.26 391.92 546.67 390.7 552.05 383.13C547.4 389.72 561.09 357.74 566.96 345.54C567.01 345.13 567.26 343.1 567.7 339.44C565.09 309.82 562.81 293.62 560.85 290.86Z" id="a61rcrXpoL"/></defs><g><g><g><use xlink:href="#a7arTiBo1p" opacity="1" fill="url(#gradientak3TRPe)"/><g><use xlink:href="#a7arTiBo1p" opacity="1" fill-opacity="0" stroke="#000" stroke-width="1" stroke-opacity="0"/></g></g><g><use xlink:href="#b51iRaEZeX" opacity="1" fill="url(#gradientb26U4gB0P)"/><g><use xlink:href="#b51iRaEZeX" opacity="1" fill-opacity="0" stroke="#000" stroke-width="1" stroke-opacity="0"/></g></g><g><use xlink:href="#e4Z7oqJ4tP" opacity="1" fill="url(#gradienta1uI7lH0kp)"/><g><use xlink:href="#e4Z7oqJ4tP" opacity="1" fill-opacity="0" stroke="#000" stroke-width="1" stroke-opacity="0"/></g></g><g><use xlink:href="#aotXNRfWG" opacity="1" fill="url(#gradientd5BRCEcU7g)"/><g><use xlink:href="#aotXNRfWG" opacity="1" fill-opacity="0" stroke="#000" stroke-width="1" stroke-opacity="0"/></g></g><g><use xlink:href="#b1sK8mCz19" opacity="1" fill="url(#gradientb1mLD1Pnhk)"/><g><use xlink:href="#b1sK8mCz19" opacity="1" fill-opacity="0" stroke="#000" stroke-width="1" stroke-opacity="0"/></g></g><g><use xlink:href="#b1LOyZJX6B" opacity="1" fill="#f2f2f2" fill-opacity="1"/><g><use xlink:href="#b1LOyZJX6B" opacity="1" fill-opacity="0" stroke="#000" stroke-width="1" stroke-opacity="0"/></g></g><g><use xlink:href="#a9z2ICljZ" opacity="1" fill="#fed130" fill-opacity="1"/><g><use xlink:href="#a9z2ICljZ" opacity="1" fill-opacity="0" stroke="#000" stroke-width="1" stroke-opacity="0"/></g></g><g><use xlink:href="#eLopQU8CP" opacity="1" fill="#e64a45" fill-opacity="1"/><g><use xlink:href="#eLopQU8CP" opacity="1" fill-opacity="0" stroke="#000" stroke-width="1" stroke-opacity="0"/></g></g><g><use xlink:href="#a2p5OvdxfG" opacity="1" fill="#51b84e" fill-opacity="1"/><g><use xlink:href="#a2p5OvdxfG" opacity="1" fill-opacity="0" stroke="#000" stroke-width="1" stroke-opacity="0"/></g></g><g><use xlink:href="#a61rcrXpoL" opacity="1" fill="#0d77b0" fill-opacity="1"/><g><use xlink:href="#a61rcrXpoL" opacity="1" fill-opacity="0" stroke="#fff" stroke-width="12" stroke-opacity="1"/></g></g></g></g></svg>